<svg width="216" height="256" viewBox="0 0 216 256" fill="none" xmlns="http://www.w3.org/2000/svg">
<path d="M18.3809 74.0347L85.9015 6.1886L159.518 73.9148L18.3809 74.0347Z" stroke="white" stroke-width="2" stroke-miterlimit="10" stroke-linecap="round" stroke-linejoin="round"/>
<path d="M99.7207 5.16116L147.394 1L214.829 62.6471L170.598 70.8838" stroke="white" stroke-width="2" stroke-miterlimit="10" stroke-linecap="round" stroke-linejoin="round"/>
<path d="M1 167.533H27.5254V90.0114H142.994V166.882L203.322 147.634V77.1854" stroke="white" stroke-width="2" stroke-miterlimit="10" stroke-linecap="round" stroke-linejoin="round"/>
<path d="M62.168 141.812V202.808H91.5188V112.855H62.168V131.452" stroke="#D97A34" stroke-width="2" stroke-miterlimit="10" stroke-linecap="round" stroke-linejoin="round"/>
<path d="M59.2383 133.182C59.2383 132.308 59.7863 131.606 60.4712 131.606H72.9719C73.6568 131.606 74.2048 132.308 74.2048 133.182V139.911C74.2048 140.785 73.6568 141.487 72.9719 141.487H60.4712C59.7863 141.487 59.2383 140.785 59.2383 139.911V133.182Z" stroke="#D97A34" stroke-width="2" stroke-miterlimit="10"/>
<path d="M62.168 112.855L74.2405 105.44H101.211L91.5188 112.855" stroke="#D97A34" stroke-width="2" stroke-miterlimit="10" stroke-linecap="round" stroke-linejoin="round"/>
<path d="M101.208 105.44V193.938L91.5156 202.809" stroke="#D97A34" stroke-width="2" stroke-miterlimit="10" stroke-linecap="round" stroke-linejoin="round"/>
<path d="M84.9918 215.754C82.8684 215.754 81.1389 214.025 81.1389 211.901V202.894H75.1797V212.295C75.1797 212.415 75.1797 212.552 75.1968 212.672C75.5221 217.467 79.5292 221.405 84.3411 221.662C84.4267 221.679 84.5295 221.679 84.6151 221.679H127.203V250.414C127.203 252.023 128.504 253.325 130.114 253.325C130.885 253.325 131.621 253.017 132.169 252.469C132.717 251.921 133.025 251.184 133.025 250.414V221.679H140.68V250.414C140.68 252.023 141.981 253.325 143.591 253.325C144.361 253.325 145.098 253.017 145.646 252.469C146.194 251.921 146.502 251.184 146.502 250.414V221.679H154.225V250.414C154.225 252.023 155.526 253.325 157.136 253.325C157.855 253.325 158.54 253.051 159.071 252.588L159.225 252.708L159.705 251.801C159.893 251.458 159.996 251.082 160.03 250.688C160.03 250.671 160.03 250.653 160.03 250.636V250.602C160.03 250.551 160.047 250.482 160.03 250.431V215.72H84.9918V215.754Z" stroke="#D97A34" stroke-width="2" stroke-miterlimit="10"/>
<path d="M74.6328 139.791H91.2604" stroke="#D97A34" stroke-width="2" stroke-miterlimit="10" stroke-linecap="round" stroke-linejoin="round"/>
</svg>
