<svg width="161" height="164" viewBox="0 0 161 164" fill="none" xmlns="http://www.w3.org/2000/svg">
<path d="M1.37427 107.151H18.2253V57.9035H91.5801V106.738L129.906 94.5102V49.7554" stroke="#F6F6F6" stroke-width="2" stroke-miterlimit="10" stroke-linecap="round" stroke-linejoin="round"/>
<path d="M12.4155 47.7537L55.3101 4.65234L102.077 47.6775L12.4155 47.7537Z" stroke="#F6F6F6" stroke-width="2" stroke-miterlimit="10" stroke-linecap="round" stroke-linejoin="round"/>
<path d="M49.9084 90.5176H60.4716" stroke="#D97A34" stroke-width="2" stroke-miterlimit="10" stroke-linecap="round" stroke-linejoin="round"/>
<path d="M56.4881 138.776C55.1391 138.776 54.0404 137.678 54.0404 136.329V130.606H50.2546V136.579C50.2546 136.655 50.2546 136.742 50.2655 136.818C50.4722 139.864 53.0178 142.366 56.0747 142.529C56.1291 142.54 56.1944 142.54 56.2488 142.54H83.304V160.795C83.304 161.817 84.1308 162.644 85.1534 162.644C85.6429 162.644 86.1107 162.448 86.4588 162.1C86.8069 161.752 87.0028 161.284 87.0028 160.795V142.54H91.8655V160.795C91.8655 161.817 92.6923 162.644 93.7149 162.644C94.2044 162.644 94.6722 162.448 95.0203 162.1C95.3685 161.752 95.5643 161.284 95.5643 160.795V142.54H100.471V160.795C100.471 161.817 101.297 162.644 102.32 162.644C102.777 162.644 103.212 162.47 103.549 162.176L103.647 162.252L103.952 161.676C104.071 161.458 104.137 161.219 104.158 160.969C104.158 160.958 104.158 160.947 104.158 160.936V160.914C104.158 160.882 104.169 160.838 104.158 160.806V138.755H56.4881V138.776Z" stroke="#D97A34" stroke-width="2" stroke-miterlimit="10"/>
<path d="M66.7899 68.6953V124.916L60.6326 130.551" stroke="#D97A34" stroke-width="2" stroke-miterlimit="10" stroke-linecap="round" stroke-linejoin="round"/>
<path d="M41.989 73.4058L49.6585 68.6953H66.7923L60.635 73.4058" stroke="#D97A34" stroke-width="2" stroke-miterlimit="10" stroke-linecap="round" stroke-linejoin="round"/>
<path d="M40.1277 86.3187C40.1277 85.7639 40.4758 85.3179 40.911 85.3179H48.8524C49.2875 85.3179 49.6356 85.7639 49.6356 86.3187V90.594C49.6356 91.1488 49.2875 91.5949 48.8524 91.5949H40.911C40.4758 91.5949 40.1277 91.1488 40.1277 90.594V86.3187Z" stroke="#D97A34" stroke-width="2" stroke-miterlimit="10"/>
<path d="M41.989 91.802V130.552H60.635V73.4062H41.989V85.2205" stroke="#D97A34" stroke-width="2" stroke-miterlimit="10" stroke-linecap="round" stroke-linejoin="round"/>
<path d="M133.702 117.763L141.948 114.931" stroke="#85ADBD" stroke-width="2" stroke-miterlimit="10" stroke-linecap="round" stroke-linejoin="round"/>
<path d="M133.702 113.442L141.948 110.622" stroke="#85ADBD" stroke-width="2" stroke-miterlimit="10" stroke-linecap="round" stroke-linejoin="round"/>
<path d="M135.987 108.206V103.062C135.987 103.062 136.792 100.41 138.978 100.5C138.978 100.5 141.187 100.365 142.024 103.152V118.102" stroke="#85ADBD" stroke-width="2" stroke-miterlimit="10" stroke-linecap="round" stroke-linejoin="round"/>
<path d="M127.544 110.801V106.096C127.544 106.096 128.349 103.445 130.536 103.535C130.536 103.535 132.744 103.4 133.582 106.186V120.877" stroke="#85ADBD" stroke-width="2" stroke-miterlimit="10" stroke-linecap="round" stroke-linejoin="round"/>
<path d="M125.673 111.999L159.626 100.389L132.342 97.3647L94.0164 110.047L125.673 111.999Z" stroke="#85ADBD" stroke-width="2" stroke-miterlimit="10" stroke-linecap="round" stroke-linejoin="round"/>
<path d="M62.3601 4.9413L103.874 1.35596L142.063 35.8165L104.383 42.8253L62.3601 4.9413Z" stroke="#5CAB2C" stroke-width="2" stroke-miterlimit="10" stroke-linecap="round" stroke-linejoin="round"/>
<path d="M76.9492 17.8245L116.07 12.4141" stroke="#5CAB2C" stroke-width="2" stroke-miterlimit="10" stroke-linecap="round" stroke-linejoin="round"/>
<path d="M92.1128 31.5074L129.49 24.5742" stroke="#5CAB2C" stroke-width="2" stroke-miterlimit="10" stroke-linecap="round" stroke-linejoin="round"/>
<path d="M78.5286 3.56885L118.158 39.617" stroke="#5CAB2C" stroke-width="2" stroke-miterlimit="10" stroke-linecap="round" stroke-linejoin="round"/>
<path d="M92.9995 2.33887L131.438 37.3935" stroke="#5CAB2C" stroke-width="2" stroke-miterlimit="10" stroke-linecap="round" stroke-linejoin="round"/>
</svg>
